<?xml version="1.0" encoding="utf-8"?>
<svg version="1.1" xmlns:xlink="http://www.w3.org/1999/xlink" width="21px" height="25px" xmlns="http://www.w3.org/2000/svg">
  <defs>
    <pattern id="BGPattern" patternUnits="userSpaceOnUse" alignment="0 0" imageRepeat="None" />
    <mask fill="white" id="Clip61">
      <path d="M 15.8046875 0.9486607142857151  L 20.0703125 5.301339285714285  C 20.325520833333336 5.561755952380951  20.544270833333336 5.915178571428573  20.7265625 6.361607142857142  C 20.908854166666668 6.808035714285715  21 7.217261904761904  21 7.589285714285715  L 21 23.660714285714285  C 21 24.032738095238095  20.872395833333332 24.348958333333332  20.6171875 24.609375  C 20.361979166666668 24.869791666666668  20.052083333333336 25  19.6875 25  L 1.3125 25  C 0.9479166666666667 25  0.6380208333333334 24.869791666666668  0.3828125 24.609375  C 0.12760416666666666 24.348958333333332  0 24.032738095238095  0 23.660714285714285  L 0 1.339285714285715  C 0 0.9672619047619041  0.12760416666666666 0.6510416666666657  0.3828125 0.390625  C 0.6380208333333334 0.13020833333333426  0.9479166666666667 0  1.3125 0  L 13.5625 0  C 13.927083333333336 0  14.328125 0.09300595238095344  14.765625 0.27901785714285754  C 15.203125 0.46502976190476164  15.549479166666668 0.6882440476190466  15.8046875 0.9486607142857151  Z M 14.560546875 2.2042410714285725  C 14.451171875 2.0926339285714275  14.264322916666668 1.990327380952378  14 1.8973214285714275  L 14 7.142857142857142  L 19.140625 7.142857142857142  C 19.049479166666668 6.873139880952378  18.94921875 6.682477678571427  18.83984375 6.570870535714285  L 14.560546875 2.2042410714285725  Z M 2 23  L 19 23  L 19 8.928571428571427  L 13.5625 8.928571428571427  C 13.197916666666666 8.928571428571427  12.888020833333334 8.798363095238093  12.6328125 8.537946428571427  C 12.377604166666666 8.277529761904761  12.25 7.96130952380952  12.25 7.589285714285715  L 12.25 2  L 2 2  L 2 23  Z M 5.25 12.053571428571427  L 5.25 11.160714285714285  C 5.25 11.03050595238095  5.291015625 10.923549107142858  5.373046875 10.83984375  C 5.455078125000001 10.756138392857142  5.559895833333334 10.714285714285715  5.6875 10.714285714285715  L 15.3125 10.714285714285715  C 15.44010416666667 10.714285714285715  15.544921875 10.756138392857142  15.626953125 10.83984375  C 15.708984375 10.923549107142858  15.75 11.03050595238095  15.75 11.160714285714285  L 15.75 12.053571428571427  C 15.75 12.183779761904761  15.708984375 12.290736607142858  15.626953125 12.374441964285715  C 15.544921875 12.458147321428573  15.44010416666667 12.5  15.3125 12.5  L 5.6875 12.5  C 5.559895833333334 12.5  5.455078125000001 12.458147321428573  5.373046875 12.374441964285715  C 5.291015625 12.290736607142858  5.25 12.183779761904761  5.25 12.053571428571427  Z M 5.6875 14.285714285714285  L 15.3125 14.285714285714285  C 15.44010416666667 14.285714285714285  15.544921875 14.327566964285715  15.626953125 14.41127232142857  C 15.708984375 14.49497767857143  15.75 14.601934523809524  15.75 14.732142857142858  L 15.75 15.625  C 15.75 15.755208333333332  15.708984375 15.86216517857143  15.626953125 15.945870535714285  C 15.544921875 16.029575892857142  15.44010416666667 16.07142857142857  15.3125 16.07142857142857  L 5.6875 16.07142857142857  C 5.559895833333334 16.07142857142857  5.455078125000001 16.029575892857142  5.373046875 15.945870535714285  C 5.291015625 15.86216517857143  5.25 15.755208333333332  5.25 15.625  L 5.25 14.732142857142858  C 5.25 14.601934523809524  5.291015625 14.49497767857143  5.373046875 14.41127232142857  C 5.455078125000001 14.327566964285715  5.559895833333334 14.285714285714285  5.6875 14.285714285714285  Z M 5.6875 17.857142857142858  L 15.3125 17.857142857142858  C 15.44010416666667 17.857142857142858  15.544921875 17.898995535714285  15.626953125 17.982700892857142  C 15.708984375 18.06640625  15.75 18.173363095238095  15.75 18.30357142857143  L 15.75 19.19642857142857  C 15.75 19.326636904761905  15.708984375 19.43359375  15.626953125 19.517299107142858  C 15.544921875 19.601004464285715  15.44010416666667 19.642857142857142  15.3125 19.642857142857142  L 5.6875 19.642857142857142  C 5.559895833333334 19.642857142857142  5.455078125000001 19.601004464285715  5.373046875 19.517299107142858  C 5.291015625 19.43359375  5.25 19.326636904761905  5.25 19.19642857142857  L 5.25 18.30357142857143  C 5.25 18.173363095238095  5.291015625 18.06640625  5.373046875 17.982700892857142  C 5.455078125000001 17.898995535714285  5.559895833333334 17.857142857142858  5.6875 17.857142857142858  Z " fill-rule="evenodd" />
    </mask>
  </defs>
  <g transform="matrix(1 0 0 1 -194 -3131 )">
    <path d="M 15.8046875 0.9486607142857151  L 20.0703125 5.301339285714285  C 20.325520833333336 5.561755952380951  20.544270833333336 5.915178571428573  20.7265625 6.361607142857142  C 20.908854166666668 6.808035714285715  21 7.217261904761904  21 7.589285714285715  L 21 23.660714285714285  C 21 24.032738095238095  20.872395833333332 24.348958333333332  20.6171875 24.609375  C 20.361979166666668 24.869791666666668  20.052083333333336 25  19.6875 25  L 1.3125 25  C 0.9479166666666667 25  0.6380208333333334 24.869791666666668  0.3828125 24.609375  C 0.12760416666666666 24.348958333333332  0 24.032738095238095  0 23.660714285714285  L 0 1.339285714285715  C 0 0.9672619047619041  0.12760416666666666 0.6510416666666657  0.3828125 0.390625  C 0.6380208333333334 0.13020833333333426  0.9479166666666667 0  1.3125 0  L 13.5625 0  C 13.927083333333336 0  14.328125 0.09300595238095344  14.765625 0.27901785714285754  C 15.203125 0.46502976190476164  15.549479166666668 0.6882440476190466  15.8046875 0.9486607142857151  Z M 14.560546875 2.2042410714285725  C 14.451171875 2.0926339285714275  14.264322916666668 1.990327380952378  14 1.8973214285714275  L 14 7.142857142857142  L 19.140625 7.142857142857142  C 19.049479166666668 6.873139880952378  18.94921875 6.682477678571427  18.83984375 6.570870535714285  L 14.560546875 2.2042410714285725  Z M 2 23  L 19 23  L 19 8.928571428571427  L 13.5625 8.928571428571427  C 13.197916666666666 8.928571428571427  12.888020833333334 8.798363095238093  12.6328125 8.537946428571427  C 12.377604166666666 8.277529761904761  12.25 7.96130952380952  12.25 7.589285714285715  L 12.25 2  L 2 2  L 2 23  Z M 5.25 12.053571428571427  L 5.25 11.160714285714285  C 5.25 11.03050595238095  5.291015625 10.923549107142858  5.373046875 10.83984375  C 5.455078125000001 10.756138392857142  5.559895833333334 10.714285714285715  5.6875 10.714285714285715  L 15.3125 10.714285714285715  C 15.44010416666667 10.714285714285715  15.544921875 10.756138392857142  15.626953125 10.83984375  C 15.708984375 10.923549107142858  15.75 11.03050595238095  15.75 11.160714285714285  L 15.75 12.053571428571427  C 15.75 12.183779761904761  15.708984375 12.290736607142858  15.626953125 12.374441964285715  C 15.544921875 12.458147321428573  15.44010416666667 12.5  15.3125 12.5  L 5.6875 12.5  C 5.559895833333334 12.5  5.455078125000001 12.458147321428573  5.373046875 12.374441964285715  C 5.291015625 12.290736607142858  5.25 12.183779761904761  5.25 12.053571428571427  Z M 5.6875 14.285714285714285  L 15.3125 14.285714285714285  C 15.44010416666667 14.285714285714285  15.544921875 14.327566964285715  15.626953125 14.41127232142857  C 15.708984375 14.49497767857143  15.75 14.601934523809524  15.75 14.732142857142858  L 15.75 15.625  C 15.75 15.755208333333332  15.708984375 15.86216517857143  15.626953125 15.945870535714285  C 15.544921875 16.029575892857142  15.44010416666667 16.07142857142857  15.3125 16.07142857142857  L 5.6875 16.07142857142857  C 5.559895833333334 16.07142857142857  5.455078125000001 16.029575892857142  5.373046875 15.945870535714285  C 5.291015625 15.86216517857143  5.25 15.755208333333332  5.25 15.625  L 5.25 14.732142857142858  C 5.25 14.601934523809524  5.291015625 14.49497767857143  5.373046875 14.41127232142857  C 5.455078125000001 14.327566964285715  5.559895833333334 14.285714285714285  5.6875 14.285714285714285  Z M 5.6875 17.857142857142858  L 15.3125 17.857142857142858  C 15.44010416666667 17.857142857142858  15.544921875 17.898995535714285  15.626953125 17.982700892857142  C 15.708984375 18.06640625  15.75 18.173363095238095  15.75 18.30357142857143  L 15.75 19.19642857142857  C 15.75 19.326636904761905  15.708984375 19.43359375  15.626953125 19.517299107142858  C 15.544921875 19.601004464285715  15.44010416666667 19.642857142857142  15.3125 19.642857142857142  L 5.6875 19.642857142857142  C 5.559895833333334 19.642857142857142  5.455078125000001 19.601004464285715  5.373046875 19.517299107142858  C 5.291015625 19.43359375  5.25 19.326636904761905  5.25 19.19642857142857  L 5.25 18.30357142857143  C 5.25 18.173363095238095  5.291015625 18.06640625  5.373046875 17.982700892857142  C 5.455078125000001 17.898995535714285  5.559895833333334 17.857142857142858  5.6875 17.857142857142858  Z " fill-rule="nonzero" fill="rgba(255, 255, 255, 1)" stroke="none" transform="matrix(1 0 0 1 194 3131 )" class="fill" />
    <path d="M 15.8046875 0.9486607142857151  L 20.0703125 5.301339285714285  C 20.325520833333336 5.561755952380951  20.544270833333336 5.915178571428573  20.7265625 6.361607142857142  C 20.908854166666668 6.808035714285715  21 7.217261904761904  21 7.589285714285715  L 21 23.660714285714285  C 21 24.032738095238095  20.872395833333332 24.348958333333332  20.6171875 24.609375  C 20.361979166666668 24.869791666666668  20.052083333333336 25  19.6875 25  L 1.3125 25  C 0.9479166666666667 25  0.6380208333333334 24.869791666666668  0.3828125 24.609375  C 0.12760416666666666 24.348958333333332  0 24.032738095238095  0 23.660714285714285  L 0 1.339285714285715  C 0 0.9672619047619041  0.12760416666666666 0.6510416666666657  0.3828125 0.390625  C 0.6380208333333334 0.13020833333333426  0.9479166666666667 0  1.3125 0  L 13.5625 0  C 13.927083333333336 0  14.328125 0.09300595238095344  14.765625 0.27901785714285754  C 15.203125 0.46502976190476164  15.549479166666668 0.6882440476190466  15.8046875 0.9486607142857151  Z " stroke-width="0" stroke-dasharray="0" stroke="rgba(255, 255, 255, 0)" fill="none" transform="matrix(1 0 0 1 194 3131 )" class="stroke" mask="url(#Clip61)" />
    <path d="M 14.560546875 2.2042410714285725  C 14.451171875 2.0926339285714275  14.264322916666668 1.990327380952378  14 1.8973214285714275  L 14 7.142857142857142  L 19.140625 7.142857142857142  C 19.049479166666668 6.873139880952378  18.94921875 6.682477678571427  18.83984375 6.570870535714285  L 14.560546875 2.2042410714285725  Z " stroke-width="0" stroke-dasharray="0" stroke="rgba(255, 255, 255, 0)" fill="none" transform="matrix(1 0 0 1 194 3131 )" class="stroke" mask="url(#Clip61)" />
    <path d="M 2 23  L 19 23  L 19 8.928571428571427  L 13.5625 8.928571428571427  C 13.197916666666666 8.928571428571427  12.888020833333334 8.798363095238093  12.6328125 8.537946428571427  C 12.377604166666666 8.277529761904761  12.25 7.96130952380952  12.25 7.589285714285715  L 12.25 2  L 2 2  L 2 23  Z " stroke-width="0" stroke-dasharray="0" stroke="rgba(255, 255, 255, 0)" fill="none" transform="matrix(1 0 0 1 194 3131 )" class="stroke" mask="url(#Clip61)" />
    <path d="M 5.25 12.053571428571427  L 5.25 11.160714285714285  C 5.25 11.03050595238095  5.291015625 10.923549107142858  5.373046875 10.83984375  C 5.455078125000001 10.756138392857142  5.559895833333334 10.714285714285715  5.6875 10.714285714285715  L 15.3125 10.714285714285715  C 15.44010416666667 10.714285714285715  15.544921875 10.756138392857142  15.626953125 10.83984375  C 15.708984375 10.923549107142858  15.75 11.03050595238095  15.75 11.160714285714285  L 15.75 12.053571428571427  C 15.75 12.183779761904761  15.708984375 12.290736607142858  15.626953125 12.374441964285715  C 15.544921875 12.458147321428573  15.44010416666667 12.5  15.3125 12.5  L 5.6875 12.5  C 5.559895833333334 12.5  5.455078125000001 12.458147321428573  5.373046875 12.374441964285715  C 5.291015625 12.290736607142858  5.25 12.183779761904761  5.25 12.053571428571427  Z " stroke-width="0" stroke-dasharray="0" stroke="rgba(255, 255, 255, 0)" fill="none" transform="matrix(1 0 0 1 194 3131 )" class="stroke" mask="url(#Clip61)" />
    <path d="M 5.6875 14.285714285714285  L 15.3125 14.285714285714285  C 15.44010416666667 14.285714285714285  15.544921875 14.327566964285715  15.626953125 14.41127232142857  C 15.708984375 14.49497767857143  15.75 14.601934523809524  15.75 14.732142857142858  L 15.75 15.625  C 15.75 15.755208333333332  15.708984375 15.86216517857143  15.626953125 15.945870535714285  C 15.544921875 16.029575892857142  15.44010416666667 16.07142857142857  15.3125 16.07142857142857  L 5.6875 16.07142857142857  C 5.559895833333334 16.07142857142857  5.455078125000001 16.029575892857142  5.373046875 15.945870535714285  C 5.291015625 15.86216517857143  5.25 15.755208333333332  5.25 15.625  L 5.25 14.732142857142858  C 5.25 14.601934523809524  5.291015625 14.49497767857143  5.373046875 14.41127232142857  C 5.455078125000001 14.327566964285715  5.559895833333334 14.285714285714285  5.6875 14.285714285714285  Z " stroke-width="0" stroke-dasharray="0" stroke="rgba(255, 255, 255, 0)" fill="none" transform="matrix(1 0 0 1 194 3131 )" class="stroke" mask="url(#Clip61)" />
    <path d="M 5.6875 17.857142857142858  L 15.3125 17.857142857142858  C 15.44010416666667 17.857142857142858  15.544921875 17.898995535714285  15.626953125 17.982700892857142  C 15.708984375 18.06640625  15.75 18.173363095238095  15.75 18.30357142857143  L 15.75 19.19642857142857  C 15.75 19.326636904761905  15.708984375 19.43359375  15.626953125 19.517299107142858  C 15.544921875 19.601004464285715  15.44010416666667 19.642857142857142  15.3125 19.642857142857142  L 5.6875 19.642857142857142  C 5.559895833333334 19.642857142857142  5.455078125000001 19.601004464285715  5.373046875 19.517299107142858  C 5.291015625 19.43359375  5.25 19.326636904761905  5.25 19.19642857142857  L 5.25 18.30357142857143  C 5.25 18.173363095238095  5.291015625 18.06640625  5.373046875 17.982700892857142  C 5.455078125000001 17.898995535714285  5.559895833333334 17.857142857142858  5.6875 17.857142857142858  Z " stroke-width="0" stroke-dasharray="0" stroke="rgba(255, 255, 255, 0)" fill="none" transform="matrix(1 0 0 1 194 3131 )" class="stroke" mask="url(#Clip61)" />
  </g>
</svg>