<?xml version="1.0" encoding="utf-8"?>
<svg version="1.1" xmlns:xlink="http://www.w3.org/1999/xlink" width="150px" height="150px" xmlns="http://www.w3.org/2000/svg">
  <defs>
    <pattern id="BGPattern" patternUnits="userSpaceOnUse" alignment="0 0" imageRepeat="None" />
    <mask fill="white" id="Clip217">
      <path d="M 0 75  C 0 32.99999999999999  32.99999999999999 0  75 0  C 117 0  150 32.99999999999999  150 75  C 150 117  117 150  75 150  C 32.99999999999999 150  0 117  0 75  Z " fill-rule="evenodd" />
    </mask>
  </defs>
  <g transform="matrix(1 0 0 1 -400 -253 )">
    <path d="M 0 75  C 0 32.99999999999999  32.99999999999999 0  75 0  C 117 0  150 32.99999999999999  150 75  C 150 117  117 150  75 150  C 32.99999999999999 150  0 117  0 75  Z " fill-rule="nonzero" fill="rgba(255, 255, 255, 1)" stroke="none" transform="matrix(1 0 0 1 400 253 )" class="fill" />
    <path d="M 0 75  C 0 32.99999999999999  32.99999999999999 0  75 0  C 117 0  150 32.99999999999999  150 75  C 150 117  117 150  75 150  C 32.99999999999999 150  0 117  0 75  Z " stroke-width="2" stroke-dasharray="0" stroke="rgba(121, 121, 121, 1)" fill="none" transform="matrix(1 0 0 1 400 253 )" class="stroke" mask="url(#Clip217)" />
  </g>
</svg>