<?xml version="1.0" encoding="utf-8"?>
<svg version="1.1" xmlns:xlink="http://www.w3.org/1999/xlink" width="30px" height="35px" xmlns="http://www.w3.org/2000/svg">
  <defs>
    <pattern id="BGPattern" patternUnits="userSpaceOnUse" alignment="0 0" imageRepeat="None" />
    <mask fill="white" id="Clip158">
      <path d="M 20.703125 1.328125000000001  L 28.671875 9.296875  C 28.85416666666667 9.479166666666664  29.036458333333336 9.713541666666664  29.21875 10  L 20 10  L 20 0.7812500000000011  C 20.286458333333332 0.9635416666666652  20.520833333333332 1.1458333333333293  20.703125 1.328125000000001  Z M 18.046875 11.953124999999998  C 18.411458333333332 12.31770833333333  18.854166666666668 12.499999999999998  19.375 13  L 30 13  L 30 33.125  C 30 33.645833333333336  29.817708333333332 34.088541666666664  29.453125 34.453125  C 29.08854166666667 34.817708333333336  28.645833333333336 35  28.125 35  L 1.875 35  C 1.354166666666667 35  0.9114583333333335 34.817708333333336  0.546875 34.453125  C 0.18229166666666663 34.088541666666664  0 33.645833333333336  0 33.125  L 0 1.875000000000001  C 0 1.3541666666666656  0.18229166666666663 0.911458333333332  0.546875 0.546875  C 0.9114583333333335 0.18229166666666796  1.354166666666667 0  1.875 0  L 17 0  L 17 10.625000000000002  C 17.5 11.145833333333329  17.682291666666668 11.588541666666666  18.046875 11.953124999999998  Z M 22.32421875 27.32421875  C 22.44140625 27.20703125  22.5 27.057291666666664  22.5 26.874999999999996  L 22.5 25.625000000000004  C 22.5 25.442708333333336  22.44140625 25.29296875  22.32421875 25.17578125  C 22.20703125 25.05859375  22.05729166666667 25  21.875 25  L 8.125 25  C 7.942708333333334 25  7.792968750000002 25.05859375  7.67578125 25.17578125  C 7.55859375 25.29296875  7.5 25.442708333333336  7.5 25.625000000000004  L 7.5 26.874999999999996  C 7.5 27.057291666666664  7.55859375 27.20703125  7.67578125 27.32421875  C 7.792968750000002 27.44140625  7.942708333333334 27.5  8.125 27  L 21.875 27  C 22.05729166666667 27.5  22.20703125 27.44140625  22.32421875 27.32421875  Z M 22.32421875 22.32421875  C 22.44140625 22.207031250000004  22.5 22.057291666666664  22.5 21.875  L 22.5 20.625  C 22.5 20.442708333333332  22.44140625 20.292968750000004  22.32421875 20.175781249999996  C 22.20703125 20.05859375  22.05729166666667 20  21.875 20  L 8.125 20  C 7.942708333333334 20  7.792968750000002 20.05859375  7.67578125 20.175781249999996  C 7.55859375 20.292968750000004  7.5 20.442708333333332  7.5 20.625  L 7.5 21.875  C 7.5 22.057291666666664  7.55859375 22.207031250000004  7.67578125 22.32421875  C 7.792968750000002 22.44140625  7.942708333333334 22.499999999999996  8.125 22  L 21.875 22  C 22.05729166666667 22.499999999999996  22.20703125 22.44140625  22.32421875 22.32421875  Z M 22.32421875 17.32421875  C 22.44140625 17.20703125  22.5 17.057291666666668  22.5 16.875  L 22.5 15.624999999999998  C 22.5 15.44270833333333  22.44140625 15.29296875  22.32421875 15.17578125  C 22.20703125 15.05859375  22.05729166666667 15.000000000000002  21.875 15  L 8.125 15  C 7.942708333333334 15.000000000000002  7.792968750000002 15.05859375  7.67578125 15.17578125  C 7.55859375 15.29296875  7.5 15.44270833333333  7.5 15.624999999999998  L 7.5 16.875  C 7.5 17.057291666666668  7.55859375 17.20703125  7.67578125 17.32421875  C 7.792968750000002 17.44140625  7.942708333333334 17.5  8.125 17  L 21.875 17  C 22.05729166666667 17.5  22.20703125 17.44140625  22.32421875 17.32421875  Z " fill-rule="evenodd" />
    </mask>
  </defs>
  <g transform="matrix(1 0 0 1 -175 -296 )">
    <path d="M 20.703125 1.328125000000001  L 28.671875 9.296875  C 28.85416666666667 9.479166666666664  29.036458333333336 9.713541666666664  29.21875 10  L 20 10  L 20 0.7812500000000011  C 20.286458333333332 0.9635416666666652  20.520833333333332 1.1458333333333293  20.703125 1.328125000000001  Z M 18.046875 11.953124999999998  C 18.411458333333332 12.31770833333333  18.854166666666668 12.499999999999998  19.375 13  L 30 13  L 30 33.125  C 30 33.645833333333336  29.817708333333332 34.088541666666664  29.453125 34.453125  C 29.08854166666667 34.817708333333336  28.645833333333336 35  28.125 35  L 1.875 35  C 1.354166666666667 35  0.9114583333333335 34.817708333333336  0.546875 34.453125  C 0.18229166666666663 34.088541666666664  0 33.645833333333336  0 33.125  L 0 1.875000000000001  C 0 1.3541666666666656  0.18229166666666663 0.911458333333332  0.546875 0.546875  C 0.9114583333333335 0.18229166666666796  1.354166666666667 0  1.875 0  L 17 0  L 17 10.625000000000002  C 17.5 11.145833333333329  17.682291666666668 11.588541666666666  18.046875 11.953124999999998  Z M 22.32421875 27.32421875  C 22.44140625 27.20703125  22.5 27.057291666666664  22.5 26.874999999999996  L 22.5 25.625000000000004  C 22.5 25.442708333333336  22.44140625 25.29296875  22.32421875 25.17578125  C 22.20703125 25.05859375  22.05729166666667 25  21.875 25  L 8.125 25  C 7.942708333333334 25  7.792968750000002 25.05859375  7.67578125 25.17578125  C 7.55859375 25.29296875  7.5 25.442708333333336  7.5 25.625000000000004  L 7.5 26.874999999999996  C 7.5 27.057291666666664  7.55859375 27.20703125  7.67578125 27.32421875  C 7.792968750000002 27.44140625  7.942708333333334 27.5  8.125 27  L 21.875 27  C 22.05729166666667 27.5  22.20703125 27.44140625  22.32421875 27.32421875  Z M 22.32421875 22.32421875  C 22.44140625 22.207031250000004  22.5 22.057291666666664  22.5 21.875  L 22.5 20.625  C 22.5 20.442708333333332  22.44140625 20.292968750000004  22.32421875 20.175781249999996  C 22.20703125 20.05859375  22.05729166666667 20  21.875 20  L 8.125 20  C 7.942708333333334 20  7.792968750000002 20.05859375  7.67578125 20.175781249999996  C 7.55859375 20.292968750000004  7.5 20.442708333333332  7.5 20.625  L 7.5 21.875  C 7.5 22.057291666666664  7.55859375 22.207031250000004  7.67578125 22.32421875  C 7.792968750000002 22.44140625  7.942708333333334 22.499999999999996  8.125 22  L 21.875 22  C 22.05729166666667 22.499999999999996  22.20703125 22.44140625  22.32421875 22.32421875  Z M 22.32421875 17.32421875  C 22.44140625 17.20703125  22.5 17.057291666666668  22.5 16.875  L 22.5 15.624999999999998  C 22.5 15.44270833333333  22.44140625 15.29296875  22.32421875 15.17578125  C 22.20703125 15.05859375  22.05729166666667 15.000000000000002  21.875 15  L 8.125 15  C 7.942708333333334 15.000000000000002  7.792968750000002 15.05859375  7.67578125 15.17578125  C 7.55859375 15.29296875  7.5 15.44270833333333  7.5 15.624999999999998  L 7.5 16.875  C 7.5 17.057291666666668  7.55859375 17.20703125  7.67578125 17.32421875  C 7.792968750000002 17.44140625  7.942708333333334 17.5  8.125 17  L 21.875 17  C 22.05729166666667 17.5  22.20703125 17.44140625  22.32421875 17.32421875  Z " fill-rule="nonzero" fill="rgba(255, 255, 255, 1)" stroke="none" transform="matrix(1 0 0 1 175 296 )" class="fill" />
    <path d="M 20.703125 1.328125000000001  L 28.671875 9.296875  C 28.85416666666667 9.479166666666664  29.036458333333336 9.713541666666664  29.21875 10  L 20 10  L 20 0.7812500000000011  C 20.286458333333332 0.9635416666666652  20.520833333333332 1.1458333333333293  20.703125 1.328125000000001  Z " stroke-width="0" stroke-dasharray="0" stroke="rgba(255, 255, 255, 0)" fill="none" transform="matrix(1 0 0 1 175 296 )" class="stroke" mask="url(#Clip158)" />
    <path d="M 18.046875 11.953124999999998  C 18.411458333333332 12.31770833333333  18.854166666666668 12.499999999999998  19.375 13  L 30 13  L 30 33.125  C 30 33.645833333333336  29.817708333333332 34.088541666666664  29.453125 34.453125  C 29.08854166666667 34.817708333333336  28.645833333333336 35  28.125 35  L 1.875 35  C 1.354166666666667 35  0.9114583333333335 34.817708333333336  0.546875 34.453125  C 0.18229166666666663 34.088541666666664  0 33.645833333333336  0 33.125  L 0 1.875000000000001  C 0 1.3541666666666656  0.18229166666666663 0.911458333333332  0.546875 0.546875  C 0.9114583333333335 0.18229166666666796  1.354166666666667 0  1.875 0  L 17 0  L 17 10.625000000000002  C 17.5 11.145833333333329  17.682291666666668 11.588541666666666  18.046875 11.953124999999998  Z " stroke-width="0" stroke-dasharray="0" stroke="rgba(255, 255, 255, 0)" fill="none" transform="matrix(1 0 0 1 175 296 )" class="stroke" mask="url(#Clip158)" />
    <path d="M 22.32421875 27.32421875  C 22.44140625 27.20703125  22.5 27.057291666666664  22.5 26.874999999999996  L 22.5 25.625000000000004  C 22.5 25.442708333333336  22.44140625 25.29296875  22.32421875 25.17578125  C 22.20703125 25.05859375  22.05729166666667 25  21.875 25  L 8.125 25  C 7.942708333333334 25  7.792968750000002 25.05859375  7.67578125 25.17578125  C 7.55859375 25.29296875  7.5 25.442708333333336  7.5 25.625000000000004  L 7.5 26.874999999999996  C 7.5 27.057291666666664  7.55859375 27.20703125  7.67578125 27.32421875  C 7.792968750000002 27.44140625  7.942708333333334 27.5  8.125 27  L 21.875 27  C 22.05729166666667 27.5  22.20703125 27.44140625  22.32421875 27.32421875  Z " stroke-width="0" stroke-dasharray="0" stroke="rgba(255, 255, 255, 0)" fill="none" transform="matrix(1 0 0 1 175 296 )" class="stroke" mask="url(#Clip158)" />
    <path d="M 22.32421875 22.32421875  C 22.44140625 22.207031250000004  22.5 22.057291666666664  22.5 21.875  L 22.5 20.625  C 22.5 20.442708333333332  22.44140625 20.292968750000004  22.32421875 20.175781249999996  C 22.20703125 20.05859375  22.05729166666667 20  21.875 20  L 8.125 20  C 7.942708333333334 20  7.792968750000002 20.05859375  7.67578125 20.175781249999996  C 7.55859375 20.292968750000004  7.5 20.442708333333332  7.5 20.625  L 7.5 21.875  C 7.5 22.057291666666664  7.55859375 22.207031250000004  7.67578125 22.32421875  C 7.792968750000002 22.44140625  7.942708333333334 22.499999999999996  8.125 22  L 21.875 22  C 22.05729166666667 22.499999999999996  22.20703125 22.44140625  22.32421875 22.32421875  Z " stroke-width="0" stroke-dasharray="0" stroke="rgba(255, 255, 255, 0)" fill="none" transform="matrix(1 0 0 1 175 296 )" class="stroke" mask="url(#Clip158)" />
    <path d="M 22.32421875 17.32421875  C 22.44140625 17.20703125  22.5 17.057291666666668  22.5 16.875  L 22.5 15.624999999999998  C 22.5 15.44270833333333  22.44140625 15.29296875  22.32421875 15.17578125  C 22.20703125 15.05859375  22.05729166666667 15.000000000000002  21.875 15  L 8.125 15  C 7.942708333333334 15.000000000000002  7.792968750000002 15.05859375  7.67578125 15.17578125  C 7.55859375 15.29296875  7.5 15.44270833333333  7.5 15.624999999999998  L 7.5 16.875  C 7.5 17.057291666666668  7.55859375 17.20703125  7.67578125 17.32421875  C 7.792968750000002 17.44140625  7.942708333333334 17.5  8.125 17  L 21.875 17  C 22.05729166666667 17.5  22.20703125 17.44140625  22.32421875 17.32421875  Z " stroke-width="0" stroke-dasharray="0" stroke="rgba(255, 255, 255, 0)" fill="none" transform="matrix(1 0 0 1 175 296 )" class="stroke" mask="url(#Clip158)" />
  </g>
</svg>