<?xml version="1.0" encoding="utf-8"?>
<svg version="1.1" xmlns:xlink="http://www.w3.org/1999/xlink" width="459px" height="64px" xmlns="http://www.w3.org/2000/svg">
  <defs>
    <linearGradient gradientUnits="userSpaceOnUse" x1="5.583996463309566" y1="0" x2="458.01547303271167" y2="0" id="LinearGradient243">
      <stop id="Stop244" stop-color="#000000" offset="0" />
      <stop id="Stop245" stop-color="#000000" stop-opacity="0" offset="1" />
      <stop id="Stop246" stop-color="#000000" stop-opacity="0.12941176470588237" offset="1" />
    </linearGradient>
    <pattern id="BGPattern" patternUnits="userSpaceOnUse" alignment="0 0" imageRepeat="None" />
    <mask fill="white" id="Clip247">
      <path d="M 0 52  L 0 0  L 459 0  L 459 52  C 459 58.72  453.71999999999997 64  447 64  L 12 64  C 5.279999999999999 64  0 58.72  0 52  Z " fill-rule="evenodd" />
    </mask>
  </defs>
  <g transform="matrix(1 0 0 1 -136 -524 )">
    <path d="M 0 52  L 0 0  L 459 0  L 459 52  C 459 58.72  453.71999999999997 64  447 64  L 12 64  C 5.279999999999999 64  0 58.72  0 52  Z " fill-rule="nonzero" fill="url(#LinearGradient243)" stroke="none" transform="matrix(1 0 0 1 136 524 )" class="fill" />
    <path d="M 0 52  L 0 0  L 459 0  L 459 52  C 459 58.72  453.71999999999997 64  447 64  L 12 64  C 5.279999999999999 64  0 58.72  0 52  Z " stroke-width="0" stroke-dasharray="0" stroke="rgba(121, 121, 121, 1)" fill="none" transform="matrix(1 0 0 1 136 524 )" class="stroke" mask="url(#Clip247)" />
  </g>
</svg>